<svg width="24" height="24" viewBox="0 0 24 24" fill="none" xmlns="http://www.w3.org/2000/svg">
  <path d="M17.5996 5.92578C17.7639 5.92578 17.8659 5.97428 17.9463 6.05469C18.0265 6.135 18.0751 6.23648 18.0752 6.40039C18.0752 6.56459 18.0266 6.66668 17.9463 6.74707L12.6924 12.001L13.0459 12.3545L17.9463 17.2539C18.0267 17.3343 18.0752 17.4364 18.0752 17.6006C18.0752 17.7649 18.0267 17.8669 17.9463 17.9473C17.8659 18.0277 17.7639 18.0762 17.5996 18.0762C17.4355 18.0761 17.3333 18.0276 17.2529 17.9473L12.3535 13.0469L12 12.6934L6.74609 17.9473C6.66571 18.0276 6.56362 18.0762 6.39941 18.0762C6.23551 18.0761 6.13402 18.0275 6.05371 17.9473C5.97331 17.8669 5.9248 17.7649 5.9248 17.6006C5.92484 17.4364 5.97334 17.3343 6.05371 17.2539L11.3066 12.001L10.9531 11.6475L6.05371 6.74707C5.97331 6.66667 5.9248 6.56466 5.9248 6.40039C5.92488 6.23635 5.97337 6.13503 6.05371 6.05469C6.13405 5.97435 6.23537 5.92586 6.39941 5.92578C6.56368 5.92578 6.66569 5.97429 6.74609 6.05469L11.6465 10.9541L12 11.3076L17.2529 6.05469C17.3333 5.97432 17.4355 5.92582 17.5996 5.92578Z" fill="white" stroke="black" />
</svg>