<svg width="24" height="24" viewBox="0 0 24 24" fill="none" xmlns="http://www.w3.org/2000/svg">
  <path d="M6.47663 21.1493C6.00246 21.1493 5.59904 20.9836 5.26637 20.6521C4.93371 20.3206 4.76738 19.9186 4.76738 19.4461V5.29757H4.49238C4.25188 5.29757 4.04979 5.21532 3.88613 5.05082C3.72246 4.88632 3.64062 4.68323 3.64062 4.44157C3.64062 4.1999 3.72246 3.99832 3.88613 3.83682C4.04979 3.67515 4.25188 3.59432 4.49238 3.59432H8.59763C8.59763 3.34982 8.67954 3.14573 8.84338 2.98207C9.00704 2.81857 9.20904 2.73682 9.44938 2.73682H14.5434C14.7837 2.73682 14.9858 2.81973 15.1496 2.98557C15.3133 3.15157 15.3951 3.35448 15.3951 3.59432H19.5064C19.7469 3.59432 19.949 3.67657 20.1126 3.84107C20.2763 4.00557 20.3581 4.20865 20.3581 4.45032C20.3581 4.69198 20.2763 4.89365 20.1126 5.05532C19.949 5.21682 19.7469 5.29757 19.5064 5.29757H19.2314V19.4461C19.2314 19.9186 19.065 20.3206 18.7324 20.6521C18.3997 20.9836 17.9963 21.1493 17.5221 21.1493H6.47663ZM17.5221 5.29757H6.47663V19.4461H17.5221V5.29757ZM11.9994 13.5776L14.3516 15.9488C14.5263 16.1273 14.7382 16.2197 14.9874 16.2261C15.2367 16.2324 15.4507 16.1441 15.6294 15.9613C15.8039 15.7733 15.8911 15.5601 15.8911 15.3216C15.8911 15.0832 15.8039 14.8747 15.6294 14.6961L13.2771 12.2998L15.6294 9.89757C15.8039 9.7229 15.8911 9.51515 15.8911 9.27432C15.8911 9.03332 15.8039 8.82348 15.6294 8.64482C15.4507 8.47032 15.2367 8.38307 14.9874 8.38307C14.7382 8.38307 14.5263 8.47032 14.3516 8.64482L11.9994 11.0221L9.67213 8.64482C9.49746 8.47032 9.28654 8.38307 9.03938 8.38307C8.79204 8.38307 8.57904 8.47032 8.40038 8.64482C8.22588 8.82348 8.13863 9.03748 8.13863 9.28682C8.13863 9.53598 8.22588 9.7479 8.40038 9.92257L10.7466 12.2998L8.40038 14.6771C8.22188 14.8517 8.13363 15.0627 8.13563 15.3098C8.13763 15.5571 8.22588 15.7701 8.40038 15.9488C8.58004 16.1233 8.79329 16.2106 9.04013 16.2106C9.28679 16.2106 9.49946 16.1233 9.67812 15.9488L11.9994 13.5776Z" fill="black" />
</svg>