<svg width="24" height="24" viewBox="0 0 24 24" fill="none" xmlns="http://www.w3.org/2000/svg">
  <path d="M5.51209 15.9515C5.74925 15.7998 6.00667 15.6846 6.28434 15.6058C6.562 15.5267 6.86 15.4873 7.17834 15.4873H8.01209V3.50525H7.17834C6.71017 3.50525 6.31542 3.66692 5.99409 3.99025C5.67275 4.31358 5.51209 4.70933 5.51209 5.1775V15.9515ZM9.67334 15.4873H18.4941V3.50525H9.67334V15.4873ZM7.17834 22.1487C6.25717 22.1487 5.47225 21.8244 4.82359 21.1757C4.17492 20.5271 3.85059 19.7422 3.85059 18.821V5.1775C3.85059 4.25467 4.17492 3.46833 4.82359 2.8185C5.47225 2.16867 6.25717 1.84375 7.17834 1.84375H18.4463C18.9205 1.84375 19.3239 2.01008 19.6566 2.34275C19.9893 2.67542 20.1556 3.07883 20.1556 3.553V16.4878C20.1556 16.6508 20.1139 16.7985 20.0306 16.931C19.9473 17.0635 19.8406 17.1567 19.7106 17.2105C19.4058 17.3367 19.1667 17.5422 18.9933 17.827C18.82 18.112 18.7333 18.4408 18.7333 18.8132C18.7333 19.1857 18.8196 19.5134 18.9921 19.7962C19.1646 20.0793 19.403 20.2822 19.7073 20.4052C19.8513 20.4679 19.9621 20.5772 20.0396 20.7332C20.1169 20.8892 20.1556 21.0783 20.1556 21.3005V21.3283C20.1556 21.5551 20.075 21.7485 19.9138 21.9085C19.7528 22.0687 19.5555 22.1487 19.3218 22.1487H7.17834ZM7.16684 20.4872H17.5168C17.3762 20.2502 17.2668 19.9885 17.1888 19.702C17.1108 19.4153 17.0718 19.1219 17.0718 18.8218C17.0718 18.5039 17.1113 18.206 17.1901 17.928C17.2691 17.65 17.3863 17.3902 17.5418 17.1487H7.16859C6.71092 17.1487 6.32042 17.3104 5.99709 17.6337C5.67375 17.9571 5.51209 18.3527 5.51209 18.8207C5.51209 19.2851 5.67375 19.6789 5.99709 20.0022C6.32042 20.3256 6.71034 20.4872 7.16684 20.4872Z" fill="black" />
</svg>