<svg width="24" height="24" viewBox="0 0 24 24" fill="none" xmlns="http://www.w3.org/2000/svg">
  <path d="M4.55286 21.1493C4.09286 21.1493 3.69403 20.9804 3.35636 20.6426C3.01853 20.3049 2.84961 19.9061 2.84961 19.4461V4.55359C2.84961 4.09192 3.01853 3.69167 3.35636 3.35284C3.69403 3.01384 4.09286 2.84434 4.55286 2.84434H12.6209C12.9067 2.84434 13.1211 2.93292 13.2641 3.11008C13.4069 3.28708 13.4784 3.48175 13.4784 3.69409C13.4784 3.90659 13.4064 4.103 13.2624 4.28334C13.1184 4.4635 12.9065 4.55359 12.6269 4.55359H4.55286V19.4461H19.4454V11.3031C19.4454 11.0233 19.5339 10.8113 19.7109 10.6673C19.8879 10.5235 20.0826 10.4516 20.2951 10.4516C20.5076 10.4516 20.7039 10.5235 20.8841 10.6673C21.0644 10.8113 21.1546 11.0233 21.1546 11.3031V19.4461C21.1546 19.9061 20.9851 20.3049 20.6461 20.6426C20.3073 20.9804 19.907 21.1493 19.4454 21.1493H4.55286ZM8.92736 14.2198V11.4286C8.92736 11.1943 8.97403 10.9709 9.06736 10.7586C9.16069 10.5463 9.28594 10.3614 9.44311 10.2041L18.4116 1.24158C18.5816 1.07175 18.7703 0.948502 18.9776 0.871835C19.1849 0.795169 19.3943 0.756836 19.6056 0.756836C19.8124 0.756836 20.0232 0.799335 20.2379 0.884335C20.4524 0.969335 20.6476 1.09675 20.8236 1.26658L22.7074 3.16934C22.8747 3.34267 23.0024 3.532 23.0906 3.73734C23.1789 3.94284 23.2231 4.15192 23.2231 4.36459C23.2231 4.57842 23.1799 4.79492 23.0936 5.01409C23.0071 5.23309 22.8784 5.42817 22.7074 5.59934L13.7949 14.5618C13.6375 14.719 13.4527 14.8433 13.2404 14.9346C13.028 15.0259 12.8047 15.0716 12.5704 15.0716H9.77911C9.53861 15.0716 9.33653 14.9898 9.17286 14.8261C9.00919 14.6624 8.92736 14.4603 8.92736 14.2198ZM10.5469 13.4521H12.6061L18.8894 7.16884L17.8524 6.14884L16.8111 5.13459L10.5469 11.3678V13.4521Z" fill="black" />
</svg>