<svg xmlns="http://www.w3.org/2000/svg" style="display: none;">
<symbol id="icon-fork_spoon" viewBox="0 0 32 32">
<path d="M8.976 29.533c-0.322 0-0.591-0.109-0.807-0.327s-0.323-0.488-0.323-0.808v-11.369c-1.33-0.333-2.377-0.965-3.14-1.893s-1.144-2.015-1.144-3.259v-8.305c0-0.312 0.107-0.575 0.322-0.789s0.477-0.322 0.788-0.322 0.573 0.107 0.786 0.322c0.213 0.215 0.319 0.478 0.319 0.789v7.17h2.1v-7.17c0-0.312 0.107-0.575 0.322-0.789s0.477-0.322 0.788-0.322 0.573 0.107 0.786 0.322c0.213 0.215 0.319 0.478 0.319 0.789v7.17h2.133v-7.17c0-0.312 0.107-0.575 0.322-0.789s0.478-0.322 0.789-0.322c0.311 0 0.573 0.107 0.786 0.322s0.319 0.478 0.319 0.789v8.289c0 1.249-0.384 2.334-1.152 3.254s-1.825 1.555-3.173 1.904v11.378c0 0.321-0.11 0.59-0.329 0.808s-0.49 0.327-0.812 0.327zM23.116 29.533c-0.322 0-0.59-0.109-0.806-0.327s-0.323-0.488-0.323-0.808v-11.944c-1.272-0.453-2.288-1.294-3.049-2.525s-1.141-2.686-1.141-4.368c0-1.974 0.52-3.651 1.56-5.031s2.295-2.070 3.765-2.070c1.47 0 2.725 0.692 3.765 2.077s1.56 3.059 1.56 5.024c0 1.679-0.38 3.135-1.141 4.369s-1.774 2.087-3.040 2.558v11.909c0 0.321-0.111 0.59-0.334 0.808s-0.495 0.327-0.816 0.327z"></path>
</symbol>
<symbol id="icon-fitness_center" viewBox="0 0 32 32">
<path d="M8.973 10.556l-3.97 3.969c-0.221 0.221-0.477 0.331-0.768 0.328s-0.547-0.115-0.768-0.336c-0.199-0.199-0.303-0.449-0.311-0.751s0.087-0.563 0.286-0.784l1.12-1.146-1.063-1.071c-0.227-0.227-0.34-0.493-0.34-0.8s0.113-0.573 0.34-0.8l2.046-2.046-0.596-0.588c-0.232-0.227-0.348-0.493-0.348-0.8s0.113-0.57 0.34-0.792c0.204-0.21 0.464-0.319 0.779-0.327s0.586 0.090 0.812 0.294l0.622 0.604 2.012-2.012c0.227-0.227 0.493-0.34 0.8-0.34s0.576 0.113 0.808 0.34l1.063 1.063 1.154-1.128c0.221-0.199 0.478-0.298 0.772-0.298s0.548 0.108 0.764 0.324c0.221 0.227 0.332 0.485 0.332 0.776s-0.111 0.546-0.332 0.768l-3.962 3.962 12.47 12.47 3.962-3.962c0.221-0.221 0.479-0.332 0.772-0.332s0.551 0.111 0.772 0.332c0.199 0.199 0.303 0.451 0.311 0.755s-0.087 0.565-0.286 0.78l-1.128 1.154 1.063 1.063c0.227 0.232 0.34 0.501 0.34 0.808s-0.113 0.573-0.34 0.8l-2.079 2.079 0.604 0.588c0.227 0.227 0.34 0.493 0.34 0.8s-0.113 0.57-0.34 0.792c-0.226 0.227-0.492 0.34-0.796 0.34s-0.569-0.116-0.796-0.348l-0.588-0.596-2.012 2.012c-0.227 0.227-0.493 0.34-0.8 0.34s-0.573-0.113-0.8-0.34l-1.071-1.063-1.154 1.128c-0.221 0.199-0.477 0.297-0.768 0.294s-0.544-0.112-0.76-0.328c-0.227-0.221-0.34-0.477-0.34-0.768s0.113-0.549 0.34-0.776l3.961-3.962-12.47-12.47z"></path>
</symbol>
<symbol id="icon-chair" viewBox="0 0 32 32">
<path d="M6.751 28.598c-0.303 0-0.568-0.115-0.795-0.346s-0.34-0.498-0.34-0.802v-1.484h-0.433c-1.070 0-1.979-0.374-2.727-1.123s-1.123-1.657-1.123-2.727v-8.133c0-1.146 0.343-2.027 1.029-2.644s1.499-0.945 2.437-0.982v-2.707c0-1.073 0.34-1.95 1.020-2.63s1.557-1.020 2.63-1.020h15.5c1.073 0 1.944 0.34 2.613 1.020s1.003 1.557 1.003 2.63v2.707c0.939 0.037 1.751 0.364 2.437 0.982s1.029 1.499 1.029 2.644v8.133c0 1.070-0.374 1.979-1.123 2.727s-1.657 1.123-2.727 1.123h-0.433v1.484c0 0.304-0.113 0.572-0.34 0.802s-0.492 0.346-0.796 0.346-0.569-0.115-0.795-0.346c-0.227-0.23-0.34-0.498-0.34-0.802v-1.484h-16.583v1.486c0 0.305-0.115 0.572-0.345 0.801s-0.496 0.344-0.8 0.344zM5.183 23.696h22c0.42 0 0.788-0.159 1.104-0.477s0.475-0.685 0.475-1.102v-8.133c0-0.416-0.126-0.75-0.377-1.001s-0.585-0.378-1.003-0.378c-0.418 0-0.752 0.126-1.002 0.378s-0.376 0.586-0.376 1.001v5.954h-19.642v-5.954c0-0.416-0.126-0.75-0.377-1.001s-0.585-0.378-1.003-0.378c-0.418 0-0.752 0.126-1.002 0.378s-0.376 0.586-0.376 1.001v8.133c0 0.416 0.159 0.783 0.477 1.102s0.685 0.477 1.102 0.477zM8.633 17.667h15.1v-3.683c0-0.709 0.162-1.308 0.486-1.797s0.683-0.879 1.077-1.17v-3.366c0-0.42-0.125-0.754-0.375-1.004s-0.582-0.375-0.996-0.375h-15.484c-0.41 0-0.741 0.125-0.993 0.375s-0.377 0.585-0.377 1.004v3.366c0.394 0.291 0.753 0.681 1.077 1.17s0.486 1.088 0.486 1.797v3.683z"></path>
</symbol>
</svg>