<svg width="24" height="24" viewBox="0 0 24 24" fill="none" xmlns="http://www.w3.org/2000/svg">
  <g clip-path="url(#clip0_14202_760)">
    <path d="M23.6971 11.8485C23.6971 18.3924 18.3924 23.6971 11.8485 23.6971C11.6028 23.6971 11.3591 23.6898 11.1174 23.6748C10.1037 23.6133 9.12396 23.4239 8.19486 23.1225C7.84141 23.0084 7.495 22.8773 7.1571 22.7318C2.94658 20.9148 0 16.7258 0 11.8485C0 5.30468 5.30468 0 11.8485 0C18.3924 0 23.6971 5.30468 23.6971 11.8485Z" fill="#33ADC1" />
    <path d="M11.1178 23.6752C9.71814 23.5901 8.38442 23.2617 7.15755 22.7322C11.7459 16.5463 3.80273 10.6544 3.80273 10.6544L4.96036 10.3686L7.80751 9.66602C7.80751 9.66583 16.3786 14.8942 11.1178 23.6752Z" fill="#EAE0D3" />
    <path d="M8.19531 23.1234C7.84186 23.0094 7.49546 22.8783 7.15755 22.7328C11.7459 16.5469 3.80273 10.655 3.80273 10.655L4.96036 10.3691C5.24095 10.579 5.63364 10.8522 6.03446 11.227C8.12372 13.1785 11.1545 17.3313 8.19531 23.1234Z" fill="#D6C8B0" />
    <path d="M10.6661 6.59411C10.6661 9.15234 8.59242 11.2261 6.03401 11.2261C3.47577 11.2261 1.40206 9.15234 1.40206 6.59411C1.40206 6.21209 1.44798 5.8411 1.53549 5.48602C1.62245 5.13112 1.75063 4.79213 1.91407 4.47484L0 2.56077L3.13678 2.98003L1.52771 0.985148L5.20615 2.03556L4.80515 0C4.80515 0 8.00521 1.76998 9.52568 3.55026C9.64085 3.68224 9.74824 3.82109 9.84822 3.96572C10.3638 4.7124 10.6661 5.61764 10.6661 6.59411Z" fill="#EAE0D3" />
    <path d="M8.52367 5.64816C8.52367 6.27461 8.01582 6.78264 7.38937 6.78264C6.76273 6.78264 6.25488 6.27461 6.25488 5.64816C6.25488 5.02152 6.76273 4.51367 7.38937 4.51367C8.01582 4.51367 8.52367 5.02152 8.52367 5.64816Z" fill="#2F373B" />
    <path d="M19.157 6.39815C18.6913 6.6415 18.2004 6.58636 17.8063 6.45565C17.3454 6.30342 17.0175 6.04904 17.0175 6.04904C17.0175 6.04904 15.3587 4.42063 16.6349 3.71173C17.0204 3.49803 17.3324 3.49894 17.5799 3.60524H17.5805C18.1536 3.85094 18.3837 4.6571 18.3837 4.6571C18.3837 4.6571 18.8457 3.45934 19.8675 3.82202C20.8888 4.18415 20.1664 5.8706 19.157 6.39815Z" fill="#FF648D" />
    <path d="M17.8063 6.45565C17.3454 6.30342 17.0175 6.04904 17.0175 6.04904C17.0175 6.04904 15.3587 4.42063 16.6349 3.71173C17.0204 3.49803 17.3324 3.49894 17.5799 3.60524C17.0151 3.57342 16.9972 5.65491 17.8063 6.45565Z" fill="#EA2F69" />
    <path d="M8.20029 5.286C8.20029 5.4818 8.04155 5.64053 7.84575 5.64053C7.64995 5.64053 7.49121 5.4818 7.49121 5.286C7.49121 5.09038 7.64995 4.93164 7.84575 4.93164C8.04155 4.93164 8.20029 5.09038 8.20029 5.286Z" fill="white" />
    <path d="M17.4323 6.94531C17.4323 8.67334 12.7289 13.92 15.8013 16.0942C16.5693 16.6379 17.4171 16.815 18.2569 16.7753C19.0965 16.8152 19.9442 16.6379 20.7124 16.0942C23.7846 13.92 19.0813 8.67334 19.0813 6.94531" fill="#FF648D" />
    <path d="M18.1297 16.7791C17.3313 16.7964 16.5304 16.6104 15.8013 16.0942C12.7289 13.92 17.4324 8.67316 17.4324 6.94531H17.9365C17.9365 8.67316 16.1088 13.92 17.3028 16.0942C17.5626 16.5672 17.8459 16.7632 18.1297 16.7791Z" fill="#EA2F69" />
    <path d="M18.1299 16.7792C18.172 16.7788 18.2141 16.7772 18.2563 16.7754C18.2141 16.7806 18.172 16.7821 18.1299 16.7792Z" fill="#EA2F69" />
    <path d="M18.383 16.7792C18.3409 16.7821 18.299 16.7806 18.2568 16.7754C18.299 16.7772 18.3409 16.7788 18.383 16.7792Z" fill="#EA2F69" />
    <path d="M21.348 6.64093L9.6259 8.57868C9.6259 8.57868 9.21676 7.95819 9.06778 7.13558C8.93526 6.4021 9.00975 5.50771 9.76764 4.75L21.348 6.64093Z" fill="#FFD62C" />
    <path d="M21.3486 6.64062L9.62647 8.57838C9.62647 8.57838 9.21733 7.95789 9.06836 7.13528L21.3486 6.64062Z" fill="#FFB92E" />
    <path d="M6.03401 11.2253C3.47577 11.2253 1.40206 9.15157 1.40206 6.59333C1.40206 6.21132 1.44798 5.84033 1.53549 5.48525C1.62245 5.13035 1.75063 4.79136 1.91407 4.47406L0 2.56L3.13678 2.97926L1.52771 0.984375L5.27774 3.09533C5.27774 3.09533 2.96159 3.94651 2.96159 6.6407C2.96159 9.3349 6.03401 11.2253 6.03401 11.2253Z" fill="#D6C8B0" />
  </g>
  <defs>
    <clipPath id="clip0_14202_760">
      <rect width="23.6971" height="23.6971" fill="white" />
    </clipPath>
  </defs>
</svg>