<svg width="24" height="24" viewBox="0 0 24 24" fill="none" xmlns="http://www.w3.org/2000/svg">
  <path d="M4.55384 21.1487C4.09384 21.1487 3.695 20.9798 3.35734 20.642C3.0195 20.3043 2.85059 19.9055 2.85059 19.4455V4.553C2.85059 4.09133 3.0195 3.69108 3.35734 3.35225C3.695 3.01325 4.09384 2.84375 4.55384 2.84375H11.1593C11.3997 2.84375 11.6017 2.92717 11.7653 3.094C11.929 3.261 12.0108 3.46508 12.0108 3.70625C12.0108 3.94758 11.929 4.14908 11.7653 4.31075C11.6017 4.47225 11.3997 4.553 11.1593 4.553H4.55384V19.4455H11.1593C11.3997 19.4455 11.6017 19.5277 11.7653 19.6922C11.929 19.8567 12.0108 20.0598 12.0108 20.3015C12.0108 20.5432 11.929 20.7448 11.7653 20.9062C11.6017 21.0679 11.3997 21.1487 11.1593 21.1487H4.55384ZM17.8918 12.851H9.81584C9.5755 12.851 9.3735 12.7687 9.20984 12.604C9.04617 12.4395 8.96434 12.2364 8.96434 11.9948C8.96434 11.7532 9.04617 11.5517 9.20984 11.39C9.3735 11.2283 9.5755 11.1475 9.81584 11.1475H17.8418L15.9186 9.22425C15.7486 9.05342 15.6678 8.85333 15.6761 8.624C15.6844 8.3945 15.7736 8.19575 15.9436 8.02775C16.1134 7.85592 16.3158 7.771 16.5508 7.773C16.7857 7.775 16.9894 7.86092 17.1621 8.03075L20.5588 11.4275C20.7247 11.5988 20.8076 11.7981 20.8076 12.0252C20.8076 12.2524 20.7247 12.451 20.5588 12.621L17.1871 15.9927C17.0204 16.1626 16.8223 16.2443 16.5928 16.238C16.3632 16.2317 16.1602 16.1436 15.9838 15.9737C15.8203 15.8037 15.7375 15.6009 15.7353 15.3652C15.7332 15.1294 15.8193 14.9261 15.9936 14.7552L17.8918 12.851Z" fill="black" />
</svg>