<svg width="49" height="11" viewBox="0 0 49 11" fill="none" xmlns="http://www.w3.org/2000/svg">
  <path d="M44.7249 10.3136C44.0855 10.3136 43.5117 10.1559 43.0037 9.84061C42.4957 9.51651 42.0927 9.08292 41.7949 8.53985C41.5059 7.98801 41.3613 7.3661 41.3613 6.67411C41.3613 5.98213 41.519 5.36022 41.8343 4.80838C42.1584 4.25655 42.592 3.82296 43.1351 3.50763C43.6869 3.18353 44.3045 3.02148 44.9877 3.02148C45.6709 3.02148 46.2841 3.18353 46.8271 3.50763C47.3702 3.82296 47.7994 4.25655 48.1148 4.80838C48.4388 5.36022 48.6009 5.98213 48.6009 6.67411H48.0885C48.0885 7.3661 47.9396 7.98801 47.6418 8.53985C47.3527 9.08292 46.9541 9.51651 46.4461 9.84061C45.9381 10.1559 45.3643 10.3136 44.7249 10.3136ZM44.9877 9.1311C45.4344 9.1311 45.833 9.02599 46.1833 8.81577C46.5337 8.59678 46.8096 8.30335 47.0111 7.93546C47.2125 7.55881 47.3133 7.13836 47.3133 6.67411C47.3133 6.20111 47.2125 5.78067 47.0111 5.41277C46.8096 5.03612 46.5337 4.74269 46.1833 4.53246C45.833 4.31348 45.4344 4.20399 44.9877 4.20399C44.5497 4.20399 44.1512 4.31348 43.792 4.53246C43.4417 4.74269 43.1614 5.03612 42.9511 5.41277C42.7497 5.78067 42.6489 6.20111 42.6489 6.67411C42.6489 7.13836 42.7497 7.55881 42.9511 7.93546C43.1614 8.30335 43.4417 8.59678 43.792 8.81577C44.1512 9.02599 44.5497 9.1311 44.9877 9.1311ZM47.9308 10.2742C47.7381 10.2742 47.5761 10.2129 47.4447 10.0902C47.322 9.95886 47.2607 9.79681 47.2607 9.6041V7.59384L47.5104 6.20111L48.6009 6.67411V9.6041C48.6009 9.79681 48.5352 9.95886 48.4038 10.0902C48.2812 10.2129 48.1235 10.2742 47.9308 10.2742Z" fill="black" />
  <path d="M40.4001 10.1034C40.2862 10.2085 40.1242 10.2611 39.914 10.2611C39.7125 10.2523 39.5548 10.191 39.441 10.0771L36.2482 6.64786L39.257 3.28429C39.3709 3.16166 39.5286 3.09159 39.73 3.07407C39.9402 3.05655 40.1023 3.10034 40.2162 3.20546C40.3476 3.32809 40.422 3.46824 40.4395 3.6259C40.457 3.77481 40.4089 3.91058 40.295 4.03321L37.9168 6.58217L40.4395 9.2888C40.5534 9.40267 40.6103 9.53844 40.6103 9.6961C40.6103 9.84501 40.5403 9.98078 40.4001 10.1034ZM35.1971 10.2742C35.0044 10.2742 34.8511 10.2129 34.7372 10.0903C34.6233 9.95888 34.5664 9.79684 34.5664 9.60413V3.74415C34.5664 3.54269 34.6233 3.38064 34.7372 3.25801C34.8511 3.13538 35.0044 3.07407 35.1971 3.07407C35.3985 3.07407 35.5606 3.13538 35.6832 3.25801C35.8146 3.38064 35.8803 3.54269 35.8803 3.74415V5.93836H37.5621V7.17342H35.8803V9.60413C35.8803 9.79684 35.8146 9.95888 35.6832 10.0903C35.5606 10.2129 35.3985 10.2742 35.1971 10.2742Z" fill="black" />
  <path d="M29.6509 10.3136C28.9238 10.3136 28.2756 10.1603 27.7063 9.85374C27.1457 9.53841 26.7033 9.1092 26.3793 8.56613C26.0639 8.01429 25.9062 7.38362 25.9062 6.67411C25.9062 5.95585 26.0552 5.32518 26.353 4.7821C26.6596 4.23027 27.08 3.80106 27.6143 3.49449C28.1486 3.17915 28.7618 3.02148 29.4538 3.02148C30.137 3.02148 30.7239 3.17477 31.2144 3.48135C31.7049 3.77916 32.0772 4.19523 32.3312 4.72955C32.594 5.25511 32.7254 5.86388 32.7254 6.55586C32.7254 6.72229 32.6684 6.86244 32.5546 6.97631C32.4407 7.08142 32.2962 7.13398 32.121 7.13398H26.826V6.08286H32.0816L31.5429 6.45075C31.5341 6.01279 31.4465 5.623 31.2801 5.28139C31.1137 4.93101 30.8772 4.65509 30.5706 4.45363C30.264 4.25217 29.8917 4.15143 29.4538 4.15143C28.9545 4.15143 28.5253 4.26093 28.1662 4.47991C27.8158 4.69889 27.5486 5.00109 27.3647 5.3865C27.1807 5.76315 27.0888 6.19235 27.0888 6.67411C27.0888 7.15588 27.1982 7.58508 27.4172 7.96173C27.6362 8.33838 27.9384 8.6362 28.3238 8.85518C28.7092 9.07417 29.1516 9.18366 29.6509 9.18366C29.9224 9.18366 30.1983 9.13548 30.4786 9.03913C30.7677 8.93402 30.9998 8.81577 31.175 8.68438C31.3064 8.58802 31.4465 8.53985 31.5954 8.53985C31.7531 8.53109 31.8889 8.57489 32.0027 8.67124C32.1516 8.80263 32.2305 8.94716 32.2392 9.10482C32.248 9.26249 32.1779 9.39826 32.029 9.51213C31.7312 9.74863 31.3589 9.94134 30.9122 10.0902C30.4742 10.2392 30.0538 10.3136 29.6509 10.3136Z" fill="black" />
  <path d="M21.125 3.08789C21.2564 3.08789 21.3746 3.12293 21.4797 3.193C21.5849 3.26308 21.6681 3.37257 21.7294 3.52148L24.436 9.39459C24.5148 9.56978 24.5236 9.72745 24.4623 9.8676C24.401 9.99898 24.2959 10.0997 24.147 10.1698C23.9542 10.2574 23.7878 10.2793 23.6477 10.2355C23.5075 10.1917 23.3893 10.0822 23.2929 9.90701L20.8228 4.29667H21.4929L18.9439 9.90701C18.8651 10.0734 18.7468 10.1829 18.5892 10.2355C18.4403 10.2793 18.2738 10.2574 18.0899 10.1698C17.9235 10.091 17.8052 9.98585 17.7351 9.85446C17.6738 9.72307 17.687 9.56978 17.7746 9.39459L20.4943 3.52148C20.6257 3.23242 20.8359 3.08789 21.125 3.08789Z" fill="black" />
  <path d="M13.5161 10.3136C12.7891 10.3136 12.1409 10.1603 11.5715 9.85374C11.0109 9.53841 10.5686 9.1092 10.2445 8.56613C9.92915 8.01429 9.77148 7.38362 9.77148 6.67411C9.77148 5.95585 9.92039 5.32518 10.2182 4.7821C10.5248 4.23027 10.9452 3.80106 11.4795 3.49449C12.0139 3.17915 12.627 3.02148 13.319 3.02148C14.0022 3.02148 14.5891 3.17477 15.0796 3.48135C15.5701 3.77916 15.9424 4.19523 16.1964 4.72955C16.4592 5.25511 16.5906 5.86388 16.5906 6.55586C16.5906 6.72229 16.5337 6.86244 16.4198 6.97631C16.3059 7.08142 16.1614 7.13398 15.9862 7.13398H10.6912V6.08286H15.9468L15.4081 6.45075C15.3993 6.01279 15.3117 5.623 15.1453 5.28139C14.9789 4.93101 14.7424 4.65509 14.4358 4.45363C14.1292 4.25217 13.757 4.15143 13.319 4.15143C12.8197 4.15143 12.3905 4.26093 12.0314 4.47991C11.681 4.69889 11.4139 5.00109 11.2299 5.3865C11.046 5.76315 10.954 6.19235 10.954 6.67411C10.954 7.15588 11.0635 7.58508 11.2825 7.96173C11.5014 8.33838 11.8036 8.6362 12.1891 8.85518C12.5745 9.07417 13.0168 9.18366 13.5161 9.18366C13.7876 9.18366 14.0635 9.13548 14.3438 9.03913C14.6329 8.93402 14.865 8.81577 15.0402 8.68438C15.1716 8.58802 15.3117 8.53985 15.4607 8.53985C15.6183 8.53109 15.7541 8.57489 15.868 8.67124C16.0169 8.80263 16.0957 8.94716 16.1045 9.10482C16.1132 9.26249 16.0431 9.39826 15.8942 9.51213C15.5964 9.74863 15.2242 9.94134 14.7774 10.0902C14.3395 10.2392 13.919 10.3136 13.5161 10.3136Z" fill="black" />
  <path d="M0.674467 10.2615C0.429206 10.2615 0.240881 10.1564 0.109491 9.94619C-0.0218983 9.73597 -0.0350372 9.51261 0.0700745 9.27611L3.76212 0.459863C3.89351 0.153288 4.10812 0 4.40593 0C4.72127 0 4.93587 0.153288 5.04974 0.459863L8.75493 9.30238C8.85128 9.54765 8.83814 9.77101 8.71551 9.97247C8.60164 10.1652 8.4177 10.2615 8.16368 10.2615C8.03229 10.2615 7.90528 10.2265 7.78265 10.1564C7.66877 10.0776 7.58556 9.97247 7.53301 9.84108L4.24826 1.74748H4.66871L1.30514 9.84108C1.24382 9.98123 1.15185 10.0863 1.02922 10.1564C0.915348 10.2265 0.797097 10.2615 0.674467 10.2615Z" fill="black" />
</svg>