<svg width="24" height="24" viewBox="0 0 24 24" fill="none" xmlns="http://www.w3.org/2000/svg">
  <path d="M8.85634 16.285C8.176 16.285 7.6025 16.0502 7.13584 15.5805C6.66917 15.1108 6.43584 14.5358 6.43584 13.8555C6.43584 13.1752 6.67075 12.6017 7.14059 12.135C7.61025 11.6683 8.18525 11.435 8.86559 11.435C9.54575 11.435 10.1192 11.6699 10.5858 12.1397C11.0525 12.6094 11.2858 13.1844 11.2858 13.8647C11.2858 14.5449 11.051 15.1183 10.5813 15.585C10.1117 16.0517 9.53667 16.285 8.85634 16.285ZM4.55384 22.1487C4.09384 22.1487 3.695 21.9798 3.35734 21.642C3.0195 21.3043 2.85059 20.9055 2.85059 20.4455V5.053C2.85059 4.59133 3.0195 4.19108 3.35734 3.85225C3.695 3.51325 4.09384 3.34375 4.55384 3.34375H6.12509V2.6975C6.12509 2.45833 6.20809 2.25625 6.37409 2.09125C6.54025 1.92625 6.74225 1.84375 6.98009 1.84375C7.22492 1.84375 7.43142 1.92625 7.59959 2.09125C7.76775 2.25625 7.85184 2.45833 7.85184 2.6975V3.34375H16.1483V2.6975C16.1483 2.45833 16.2314 2.25625 16.3976 2.09125C16.5636 1.92625 16.7655 1.84375 17.0033 1.84375C17.2483 1.84375 17.4548 1.92625 17.6228 2.09125C17.791 2.25625 17.8751 2.45833 17.8751 2.6975V3.34375H19.4463C19.908 3.34375 20.3083 3.51325 20.6471 3.85225C20.9861 4.19108 21.1556 4.59133 21.1556 5.053V20.4455C21.1556 20.9055 20.9861 21.3043 20.6471 21.642C20.3083 21.9798 19.908 22.1487 19.4463 22.1487H4.55384ZM4.55384 20.4455H19.4463V9.74925H4.55384V20.4455ZM4.55384 8.24925H19.4463V5.053H4.55384V8.24925Z" fill="black" />
</svg>