<svg width="24" height="24" viewBox="0 0 24 24" fill="none" xmlns="http://www.w3.org/2000/svg">
  <path d="M5.57409 17.5585C6.62009 16.8332 7.65775 16.2767 8.68709 15.889C9.71642 15.5013 10.8216 15.3075 12.0026 15.3075C13.1838 15.3075 14.2942 15.5028 15.3338 15.8935C16.3733 16.2843 17.4124 16.8393 18.4511 17.5585C19.1766 16.6545 19.6905 15.7532 19.9928 14.8547C20.2952 13.9561 20.4463 13.0042 20.4463 11.9992C20.4463 9.60158 19.6382 7.59442 18.0218 5.97775C16.4055 4.36125 14.3986 3.553 12.0011 3.553C9.60375 3.553 7.5965 4.36125 5.97934 5.97775C4.36234 7.59442 3.55384 9.60158 3.55384 11.9992C3.55384 13.0039 3.70825 13.9551 4.01709 14.8527C4.32592 15.7504 4.84492 16.6523 5.57409 17.5585ZM11.9953 12.791C11.0192 12.791 10.1992 12.4573 9.53534 11.79C8.87134 11.1225 8.53934 10.302 8.53934 9.3285C8.53934 8.355 8.87284 7.53508 9.53984 6.86875C10.207 6.20242 11.0287 5.86925 12.0048 5.86925C12.981 5.86925 13.801 6.204 14.4648 6.8735C15.1288 7.54283 15.4608 8.36425 15.4608 9.33775C15.4608 10.3114 15.1273 11.1304 14.4603 11.7947C13.7932 12.4589 12.9715 12.791 11.9953 12.791ZM12.0083 22.1487C10.6162 22.1487 9.30309 21.8827 8.06909 21.3505C6.83492 20.8183 5.75609 20.0906 4.83259 19.1672C3.90892 18.2437 3.181 17.1667 2.64884 15.9362C2.11667 14.7059 1.85059 13.3912 1.85059 11.992C1.85059 10.5975 2.11709 9.28617 2.65009 8.058C3.18309 6.82967 3.91075 5.75442 4.83309 4.83225C5.75525 3.90992 6.83167 3.18125 8.06234 2.64625C9.293 2.11125 10.608 1.84375 12.0073 1.84375C13.4018 1.84375 14.7132 2.11125 15.9413 2.64625C17.1697 3.18125 18.2449 3.90992 19.1671 4.83225C20.0894 5.75442 20.8181 6.83008 21.3531 8.05925C21.8881 9.28842 22.1556 10.599 22.1556 11.991C22.1556 13.3832 21.8881 14.6965 21.3531 15.931C20.8181 17.1657 20.0894 18.2441 19.1671 19.1663C18.2449 20.0886 17.1693 20.8162 15.9401 21.3492C14.7109 21.8822 13.4003 22.1487 12.0083 22.1487ZM12.0001 20.4455C12.9048 20.4455 13.7847 20.3162 14.6398 20.0575C15.4948 19.7987 16.3473 19.3419 17.1973 18.6873C16.3433 18.0912 15.4867 17.6399 14.6273 17.3332C13.7678 17.0266 12.8921 16.8732 12.0001 16.8732C11.1081 16.8732 10.2333 17.0266 9.37584 17.3332C8.5185 17.6399 7.66284 18.0912 6.80884 18.6873C7.65884 19.3419 8.51034 19.7987 9.36334 20.0575C10.2165 20.3162 11.0954 20.4455 12.0001 20.4455ZM12.0001 11.2192C12.5543 11.2192 13.0077 11.0441 13.3603 10.6938C13.713 10.3434 13.8893 9.88992 13.8893 9.33325C13.8893 8.77658 13.713 8.32208 13.3603 7.96975C13.0077 7.61725 12.5543 7.441 12.0001 7.441C11.4459 7.441 10.9925 7.61725 10.6398 7.96975C10.2872 8.32208 10.1108 8.77658 10.1108 9.33325C10.1108 9.88992 10.2872 10.3434 10.6398 10.6938C10.9925 11.0441 11.4459 11.2192 12.0001 11.2192Z" fill="black" />
</svg>