<svg width="24" height="24" viewBox="0 0 24 24" fill="none" xmlns="http://www.w3.org/2000/svg">
  <path d="M19.1498 21.1383C18.4226 21.1383 17.7949 20.9222 17.2666 20.49C16.7384 20.0577 16.4056 19.5399 16.2683 18.9365H11.0748C9.96164 18.9365 9.03989 18.5711 8.30956 17.8403C7.57922 17.1093 7.21406 16.1868 7.21406 15.0728C7.21406 13.9628 7.57922 13.0423 8.30956 12.3113C9.03989 11.5804 9.96164 11.215 11.0748 11.215H12.9998C13.67 11.215 14.2191 11.0009 14.6471 10.5725C15.0751 10.1444 15.2891 9.59503 15.2891 8.92453C15.2891 8.25403 15.0751 7.70512 14.6471 7.27778C14.2191 6.85028 13.67 6.63653 12.9998 6.63653H7.7373C7.5793 7.23986 7.24039 7.7577 6.72055 8.19003C6.20055 8.6222 5.57697 8.83828 4.8498 8.83828C4.0143 8.83828 3.30747 8.5492 2.7293 7.97103C2.1513 7.39286 1.8623 6.68603 1.8623 5.85053C1.8623 5.01486 2.1513 4.30803 2.7293 3.73003C3.30747 3.1522 4.0143 2.86328 4.8498 2.86328C5.57697 2.86328 6.20055 3.07936 6.72055 3.51153C7.24039 3.94386 7.5793 4.4617 7.7373 5.06503H12.9998C14.1118 5.06503 15.0333 5.43045 15.7643 6.16128C16.4951 6.89228 16.8606 7.81378 16.8606 8.92578C16.8606 10.0378 16.4951 10.9593 15.7643 11.6903C15.0333 12.4211 14.1118 12.7865 12.9998 12.7865H11.0748C10.4035 12.7865 9.85414 13.0003 9.4268 13.4278C8.9993 13.8551 8.78555 14.4034 8.78555 15.0728C8.78555 15.7461 8.9993 16.2964 9.4268 16.7238C9.85414 17.1513 10.4035 17.365 11.0748 17.365H16.2683C16.4223 16.7617 16.7592 16.2439 17.2791 15.8115C17.7991 15.3794 18.4226 15.1633 19.1498 15.1633C19.9853 15.1633 20.6921 15.4524 21.2703 16.0305C21.8483 16.6087 22.1373 17.3155 22.1373 18.151C22.1373 18.9867 21.8483 19.6935 21.2703 20.2715C20.6921 20.8494 19.9853 21.1383 19.1498 21.1383ZM4.8498 7.20078C5.23314 7.20078 5.55397 7.07161 5.8123 6.81328C6.07064 6.55495 6.1998 6.23411 6.1998 5.85078C6.1998 5.46745 6.07064 5.14661 5.8123 4.88828C5.55397 4.62995 5.23314 4.50078 4.8498 4.50078C4.46647 4.50078 4.14564 4.62995 3.8873 4.88828C3.62897 5.14661 3.4998 5.46745 3.4998 5.85078C3.4998 6.23411 3.62897 6.55495 3.8873 6.81328C4.14564 7.07161 4.46647 7.20078 4.8498 7.20078Z" fill="black" />
</svg>